<mxfile host="app.diagrams.net" modified="2023-10-29T11:26:15.644Z" agent="Mozilla/5.0 (Macintosh; Intel Mac OS X 10_15_7) AppleWebKit/605.1.15 (KHTML, like Gecko) Version/15.4 Safari/605.1.15" etag="2-CsHgg6LxkVuzYYrQW2" version="22.0.8" type="device">
  <diagram name="Страница — 1" id="qL4MwHMn5mlvxYxAxoMW">
    <mxGraphModel dx="855" dy="577" grid="1" gridSize="10" guides="1" tooltips="1" connect="1" arrows="1" fold="1" page="1" pageScale="1" pageWidth="3300" pageHeight="4681" math="0" shadow="0">
      <root>
        <mxCell id="0" />
        <mxCell id="1" parent="0" />
        <mxCell id="fv7HTJnl9uvVaTUGdY6p-1" value="Admin&lt;br&gt;" style="shape=umlActor;verticalLabelPosition=bottom;verticalAlign=top;html=1;strokeColor=#457B9D;fontColor=#1D3557;fillColor=#A8DADC;" vertex="1" parent="1">
          <mxGeometry x="105" y="120" width="30" height="60" as="geometry" />
        </mxCell>
        <mxCell id="fv7HTJnl9uvVaTUGdY6p-2" value="UI" style="shape=umlBoundary;whiteSpace=wrap;html=1;strokeColor=#457B9D;fontColor=#1D3557;fillColor=#A8DADC;" vertex="1" parent="1">
          <mxGeometry x="360" y="120" width="70" height="60" as="geometry" />
        </mxCell>
        <mxCell id="fv7HTJnl9uvVaTUGdY6p-3" value="User Based Back" style="ellipse;shape=umlControl;whiteSpace=wrap;html=1;strokeColor=#457B9D;fontColor=#1D3557;fillColor=#A8DADC;" vertex="1" parent="1">
          <mxGeometry x="650" y="110" width="60" height="70" as="geometry" />
        </mxCell>
        <mxCell id="fv7HTJnl9uvVaTUGdY6p-4" value="Delete Trans-action" style="ellipse;shape=umlControl;whiteSpace=wrap;html=1;strokeColor=#457B9D;fontColor=#1D3557;fillColor=#A8DADC;" vertex="1" parent="1">
          <mxGeometry x="930" y="110" width="60" height="70" as="geometry" />
        </mxCell>
        <mxCell id="fv7HTJnl9uvVaTUGdY6p-5" value="Logins DB" style="ellipse;shape=umlEntity;whiteSpace=wrap;html=1;strokeColor=#457B9D;fontColor=#1D3557;fillColor=#A8DADC;" vertex="1" parent="1">
          <mxGeometry x="1210" y="120" width="60" height="60" as="geometry" />
        </mxCell>
        <mxCell id="fv7HTJnl9uvVaTUGdY6p-6" value="" style="endArrow=none;dashed=1;html=1;dashPattern=1 3;strokeWidth=2;rounded=0;strokeColor=#457B9D;fontColor=#1D3557;fillColor=#A8DADC;entryX=0.5;entryY=0.5;entryDx=0;entryDy=0;entryPerimeter=0;" edge="1" parent="1" target="fv7HTJnl9uvVaTUGdY6p-1" source="fv7HTJnl9uvVaTUGdY6p-37">
          <mxGeometry width="50" height="50" relative="1" as="geometry">
            <mxPoint x="120" y="1200" as="sourcePoint" />
            <mxPoint x="119.5" y="260" as="targetPoint" />
          </mxGeometry>
        </mxCell>
        <mxCell id="fv7HTJnl9uvVaTUGdY6p-7" value="" style="endArrow=none;dashed=1;html=1;dashPattern=1 3;strokeWidth=2;rounded=0;strokeColor=#457B9D;fontColor=#1D3557;fillColor=#A8DADC;entryX=0.571;entryY=1.05;entryDx=0;entryDy=0;entryPerimeter=0;" edge="1" parent="1" target="fv7HTJnl9uvVaTUGdY6p-2" source="fv7HTJnl9uvVaTUGdY6p-39">
          <mxGeometry width="50" height="50" relative="1" as="geometry">
            <mxPoint x="400" y="1200" as="sourcePoint" />
            <mxPoint x="400" y="210" as="targetPoint" />
          </mxGeometry>
        </mxCell>
        <mxCell id="fv7HTJnl9uvVaTUGdY6p-8" value="" style="endArrow=none;dashed=1;html=1;dashPattern=1 3;strokeWidth=2;rounded=0;strokeColor=#457B9D;fontColor=#1D3557;fillColor=#A8DADC;entryX=0.517;entryY=1.029;entryDx=0;entryDy=0;entryPerimeter=0;" edge="1" parent="1" target="fv7HTJnl9uvVaTUGdY6p-3" source="fv7HTJnl9uvVaTUGdY6p-41">
          <mxGeometry width="50" height="50" relative="1" as="geometry">
            <mxPoint x="681" y="1200" as="sourcePoint" />
            <mxPoint x="680" y="200" as="targetPoint" />
          </mxGeometry>
        </mxCell>
        <mxCell id="fv7HTJnl9uvVaTUGdY6p-9" value="" style="endArrow=none;dashed=1;html=1;dashPattern=1 3;strokeWidth=2;rounded=0;strokeColor=#457B9D;fontColor=#1D3557;fillColor=#A8DADC;entryX=0.517;entryY=1;entryDx=0;entryDy=0;entryPerimeter=0;" edge="1" parent="1" target="fv7HTJnl9uvVaTUGdY6p-4">
          <mxGeometry width="50" height="50" relative="1" as="geometry">
            <mxPoint x="961" y="1600" as="sourcePoint" />
            <mxPoint x="961" y="200" as="targetPoint" />
          </mxGeometry>
        </mxCell>
        <mxCell id="fv7HTJnl9uvVaTUGdY6p-10" value="" style="endArrow=none;dashed=1;html=1;dashPattern=1 3;strokeWidth=2;rounded=0;strokeColor=#457B9D;fontColor=#1D3557;fillColor=#A8DADC;entryX=0.5;entryY=1;entryDx=0;entryDy=0;" edge="1" parent="1" target="fv7HTJnl9uvVaTUGdY6p-5" source="fv7HTJnl9uvVaTUGdY6p-44">
          <mxGeometry width="50" height="50" relative="1" as="geometry">
            <mxPoint x="1240" y="1200" as="sourcePoint" />
            <mxPoint x="1240.88" y="190" as="targetPoint" />
          </mxGeometry>
        </mxCell>
        <mxCell id="fv7HTJnl9uvVaTUGdY6p-11" value="&#39;Delete Supply&#39; Button Pressed" style="html=1;verticalAlign=bottom;endArrow=block;curved=0;rounded=0;" edge="1" parent="1">
          <mxGeometry width="80" relative="1" as="geometry">
            <mxPoint x="120" y="240" as="sourcePoint" />
            <mxPoint x="400" y="240" as="targetPoint" />
          </mxGeometry>
        </mxCell>
        <mxCell id="fv7HTJnl9uvVaTUGdY6p-12" value="Send Request for &#39;Supply names&#39; List with its &#39;Departments&#39;" style="html=1;verticalAlign=bottom;endArrow=block;curved=0;rounded=0;" edge="1" parent="1">
          <mxGeometry width="80" relative="1" as="geometry">
            <mxPoint x="400" y="280" as="sourcePoint" />
            <mxPoint x="680" y="280" as="targetPoint" />
          </mxGeometry>
        </mxCell>
        <mxCell id="fv7HTJnl9uvVaTUGdY6p-13" value="Get &#39;Supply names&#39; List with its &#39;Departments&#39;, &#39;emails&#39; and RSA Keys" style="html=1;verticalAlign=bottom;endArrow=block;curved=0;rounded=0;" edge="1" parent="1">
          <mxGeometry width="80" relative="1" as="geometry">
            <mxPoint x="680" y="320" as="sourcePoint" />
            <mxPoint x="1240" y="320" as="targetPoint" />
          </mxGeometry>
        </mxCell>
        <mxCell id="fv7HTJnl9uvVaTUGdY6p-15" value="Send &#39;Supply names&#39; List with its &#39;Departments&#39;, &#39;emails&#39; and RSA keys" style="html=1;verticalAlign=bottom;endArrow=block;curved=0;rounded=0;" edge="1" parent="1">
          <mxGeometry width="80" relative="1" as="geometry">
            <mxPoint x="1240" y="480" as="sourcePoint" />
            <mxPoint x="680" y="480" as="targetPoint" />
            <mxPoint as="offset" />
          </mxGeometry>
        </mxCell>
        <mxCell id="fv7HTJnl9uvVaTUGdY6p-17" value="Send Decoded &#39;Supply&#39; List&lt;br&gt;&amp;nbsp;with its &#39;Departments&#39; and &#39;emails&#39;&amp;nbsp;" style="html=1;verticalAlign=bottom;endArrow=block;curved=0;rounded=0;" edge="1" parent="1">
          <mxGeometry width="80" relative="1" as="geometry">
            <mxPoint x="680" y="640" as="sourcePoint" />
            <mxPoint x="400" y="640" as="targetPoint" />
            <mxPoint as="offset" />
          </mxGeometry>
        </mxCell>
        <mxCell id="fv7HTJnl9uvVaTUGdY6p-18" value="Show list of &#39;Supply&#39; with its &#39;Departments&#39; and &#39;emails&#39;" style="html=1;verticalAlign=bottom;endArrow=block;curved=0;rounded=0;" edge="1" parent="1">
          <mxGeometry width="80" relative="1" as="geometry">
            <mxPoint x="400" y="680" as="sourcePoint" />
            <mxPoint x="120" y="680" as="targetPoint" />
          </mxGeometry>
        </mxCell>
        <mxCell id="fv7HTJnl9uvVaTUGdY6p-19" value="One of the list items selected" style="html=1;verticalAlign=bottom;endArrow=block;curved=0;rounded=0;" edge="1" parent="1">
          <mxGeometry width="80" relative="1" as="geometry">
            <mxPoint x="120" y="720" as="sourcePoint" />
            <mxPoint x="400" y="720" as="targetPoint" />
          </mxGeometry>
        </mxCell>
        <mxCell id="fv7HTJnl9uvVaTUGdY6p-20" value="Show &#39;Remove&#39; Button" style="html=1;verticalAlign=bottom;endArrow=block;curved=0;rounded=0;" edge="1" parent="1">
          <mxGeometry width="80" relative="1" as="geometry">
            <mxPoint x="400" y="760" as="sourcePoint" />
            <mxPoint x="120" y="760" as="targetPoint" />
          </mxGeometry>
        </mxCell>
        <mxCell id="fv7HTJnl9uvVaTUGdY6p-21" value="&#39;Remove&#39; Button Pressed" style="html=1;verticalAlign=bottom;endArrow=block;curved=0;rounded=0;" edge="1" parent="1">
          <mxGeometry width="80" relative="1" as="geometry">
            <mxPoint x="120" y="800" as="sourcePoint" />
            <mxPoint x="400" y="800" as="targetPoint" />
          </mxGeometry>
        </mxCell>
        <mxCell id="fv7HTJnl9uvVaTUGdY6p-22" value="Send Selected Supply &#39;email&#39;&amp;nbsp;" style="html=1;verticalAlign=bottom;endArrow=block;curved=0;rounded=0;" edge="1" parent="1">
          <mxGeometry width="80" relative="1" as="geometry">
            <mxPoint x="400" y="840" as="sourcePoint" />
            <mxPoint x="680" y="840" as="targetPoint" />
          </mxGeometry>
        </mxCell>
        <mxCell id="fv7HTJnl9uvVaTUGdY6p-27" value="Send Encoded Supply &#39;email&#39;&amp;nbsp;" style="html=1;verticalAlign=bottom;endArrow=block;curved=0;rounded=0;" edge="1" parent="1">
          <mxGeometry width="80" relative="1" as="geometry">
            <mxPoint x="680" y="1354" as="sourcePoint" />
            <mxPoint x="960" y="1354" as="targetPoint" />
          </mxGeometry>
        </mxCell>
        <mxCell id="fv7HTJnl9uvVaTUGdY6p-28" value="Set &#39;Working Marker&#39; to false&lt;br&gt;for selected Supply" style="html=1;verticalAlign=bottom;endArrow=block;curved=0;rounded=0;" edge="1" parent="1">
          <mxGeometry width="80" relative="1" as="geometry">
            <mxPoint x="960" y="1413" as="sourcePoint" />
            <mxPoint x="1240" y="1413" as="targetPoint" />
          </mxGeometry>
        </mxCell>
        <mxCell id="fv7HTJnl9uvVaTUGdY6p-30" value="Send &#39;Error&#39; message" style="html=1;verticalAlign=bottom;endArrow=block;curved=0;rounded=0;strokeColor=#457B9D;fontColor=#1D3557;fillColor=#A8DADC;" edge="1" parent="1">
          <mxGeometry width="80" relative="1" as="geometry">
            <mxPoint x="955.9" y="1459.75" as="sourcePoint" />
            <mxPoint x="675.9" y="1459.75" as="targetPoint" />
          </mxGeometry>
        </mxCell>
        <mxCell id="fv7HTJnl9uvVaTUGdY6p-31" value="Send &#39;Error&#39; message" style="html=1;verticalAlign=bottom;endArrow=block;curved=0;rounded=0;strokeColor=#457B9D;fontColor=#1D3557;fillColor=#A8DADC;" edge="1" parent="1">
          <mxGeometry width="80" relative="1" as="geometry">
            <mxPoint x="675.9" y="1479.75" as="sourcePoint" />
            <mxPoint x="395.9" y="1479.75" as="targetPoint" />
          </mxGeometry>
        </mxCell>
        <mxCell id="fv7HTJnl9uvVaTUGdY6p-32" value="Show &#39;Supply With Entered email Already Exist&#39;" style="html=1;verticalAlign=bottom;endArrow=block;curved=0;rounded=0;strokeColor=#457B9D;fontColor=#1D3557;fillColor=#A8DADC;" edge="1" parent="1">
          <mxGeometry width="80" relative="1" as="geometry">
            <mxPoint x="400" y="1499.25" as="sourcePoint" />
            <mxPoint x="120" y="1499.25" as="targetPoint" />
          </mxGeometry>
        </mxCell>
        <mxCell id="fv7HTJnl9uvVaTUGdY6p-38" value="" style="endArrow=none;dashed=1;html=1;dashPattern=1 3;strokeWidth=2;rounded=0;strokeColor=#457B9D;fontColor=#1D3557;fillColor=#A8DADC;entryX=0.5;entryY=0.5;entryDx=0;entryDy=0;entryPerimeter=0;" edge="1" parent="1" source="fv7HTJnl9uvVaTUGdY6p-48" target="fv7HTJnl9uvVaTUGdY6p-37">
          <mxGeometry width="50" height="50" relative="1" as="geometry">
            <mxPoint x="120" y="1200" as="sourcePoint" />
            <mxPoint x="120" y="150" as="targetPoint" />
          </mxGeometry>
        </mxCell>
        <mxCell id="fv7HTJnl9uvVaTUGdY6p-37" value="" style="html=1;points=[[0,0,0,0,5],[0,1,0,0,-5],[1,0,0,0,5],[1,1,0,0,-5]];perimeter=orthogonalPerimeter;outlineConnect=0;targetShapes=umlLifeline;portConstraint=eastwest;newEdgeStyle={&quot;curved&quot;:0,&quot;rounded&quot;:0};strokeColor=#457B9D;fontColor=#1D3557;fillColor=#A8DADC;" vertex="1" parent="1">
          <mxGeometry x="115" y="240" width="10" height="440" as="geometry" />
        </mxCell>
        <mxCell id="fv7HTJnl9uvVaTUGdY6p-40" value="" style="endArrow=none;dashed=1;html=1;dashPattern=1 3;strokeWidth=2;rounded=0;strokeColor=#457B9D;fontColor=#1D3557;fillColor=#A8DADC;entryX=0.571;entryY=1.05;entryDx=0;entryDy=0;entryPerimeter=0;" edge="1" parent="1" source="fv7HTJnl9uvVaTUGdY6p-46" target="fv7HTJnl9uvVaTUGdY6p-39">
          <mxGeometry width="50" height="50" relative="1" as="geometry">
            <mxPoint x="400" y="1200" as="sourcePoint" />
            <mxPoint x="400" y="183" as="targetPoint" />
          </mxGeometry>
        </mxCell>
        <mxCell id="fv7HTJnl9uvVaTUGdY6p-39" value="" style="html=1;points=[[0,0,0,0,5],[0,1,0,0,-5],[1,0,0,0,5],[1,1,0,0,-5]];perimeter=orthogonalPerimeter;outlineConnect=0;targetShapes=umlLifeline;portConstraint=eastwest;newEdgeStyle={&quot;curved&quot;:0,&quot;rounded&quot;:0};strokeColor=#457B9D;fontColor=#1D3557;fillColor=#A8DADC;" vertex="1" parent="1">
          <mxGeometry x="396" y="282" width="10" height="357" as="geometry" />
        </mxCell>
        <mxCell id="fv7HTJnl9uvVaTUGdY6p-42" value="" style="endArrow=none;dashed=1;html=1;dashPattern=1 3;strokeWidth=2;rounded=0;strokeColor=#457B9D;fontColor=#1D3557;fillColor=#A8DADC;entryX=0.517;entryY=1.029;entryDx=0;entryDy=0;entryPerimeter=0;" edge="1" parent="1" source="fv7HTJnl9uvVaTUGdY6p-52" target="fv7HTJnl9uvVaTUGdY6p-41">
          <mxGeometry width="50" height="50" relative="1" as="geometry">
            <mxPoint x="681" y="1200" as="sourcePoint" />
            <mxPoint x="681" y="182" as="targetPoint" />
          </mxGeometry>
        </mxCell>
        <mxCell id="fv7HTJnl9uvVaTUGdY6p-41" value="" style="html=1;points=[[0,0,0,0,5],[0,1,0,0,-5],[1,0,0,0,5],[1,1,0,0,-5]];perimeter=orthogonalPerimeter;outlineConnect=0;targetShapes=umlLifeline;portConstraint=eastwest;newEdgeStyle={&quot;curved&quot;:0,&quot;rounded&quot;:0};strokeColor=#457B9D;fontColor=#1D3557;fillColor=#A8DADC;" vertex="1" parent="1">
          <mxGeometry x="677" y="318" width="10" height="161" as="geometry" />
        </mxCell>
        <mxCell id="fv7HTJnl9uvVaTUGdY6p-43" value="" style="html=1;points=[[0,0,0,0,5],[0,1,0,0,-5],[1,0,0,0,5],[1,1,0,0,-5]];perimeter=orthogonalPerimeter;outlineConnect=0;targetShapes=umlLifeline;portConstraint=eastwest;newEdgeStyle={&quot;curved&quot;:0,&quot;rounded&quot;:0};strokeColor=#457B9D;fontColor=#1D3557;fillColor=#A8DADC;" vertex="1" parent="1">
          <mxGeometry x="677" y="500" width="10" height="98" as="geometry" />
        </mxCell>
        <mxCell id="fv7HTJnl9uvVaTUGdY6p-16" value="Decode &#39;Supply names&#39; List with its &#39;Departments&#39; and &#39;emails&#39; using RSA keys" style="html=1;verticalAlign=bottom;endArrow=block;curved=0;rounded=0;" edge="1" parent="1">
          <mxGeometry width="80" relative="1" as="geometry">
            <mxPoint x="680" y="500" as="sourcePoint" />
            <mxPoint x="680" y="600" as="targetPoint" />
            <Array as="points">
              <mxPoint x="760" y="500" />
              <mxPoint x="760" y="600" />
            </Array>
            <mxPoint as="offset" />
          </mxGeometry>
        </mxCell>
        <mxCell id="fv7HTJnl9uvVaTUGdY6p-45" value="" style="endArrow=none;dashed=1;html=1;dashPattern=1 3;strokeWidth=2;rounded=0;strokeColor=#457B9D;fontColor=#1D3557;fillColor=#A8DADC;entryX=0.5;entryY=1;entryDx=0;entryDy=0;" edge="1" parent="1" source="fv7HTJnl9uvVaTUGdY6p-55" target="fv7HTJnl9uvVaTUGdY6p-44">
          <mxGeometry width="50" height="50" relative="1" as="geometry">
            <mxPoint x="1240" y="1200" as="sourcePoint" />
            <mxPoint x="1240" y="180" as="targetPoint" />
          </mxGeometry>
        </mxCell>
        <mxCell id="fv7HTJnl9uvVaTUGdY6p-44" value="" style="html=1;points=[[0,0,0,0,5],[0,1,0,0,-5],[1,0,0,0,5],[1,1,0,0,-5]];perimeter=orthogonalPerimeter;outlineConnect=0;targetShapes=umlLifeline;portConstraint=eastwest;newEdgeStyle={&quot;curved&quot;:0,&quot;rounded&quot;:0};strokeColor=#457B9D;fontColor=#1D3557;fillColor=#A8DADC;" vertex="1" parent="1">
          <mxGeometry x="1235" y="342" width="10" height="98" as="geometry" />
        </mxCell>
        <mxCell id="fv7HTJnl9uvVaTUGdY6p-14" value="Form &#39;Supply names&#39; List with its &#39;Departments&#39;, &#39;emails&#39; and RSA keys&lt;br&gt;(for Supplies with true &#39;Working Marker&#39;)" style="html=1;verticalAlign=bottom;endArrow=block;curved=0;rounded=0;" edge="1" parent="1">
          <mxGeometry width="80" relative="1" as="geometry">
            <mxPoint x="1240" y="340" as="sourcePoint" />
            <mxPoint x="1240" y="440" as="targetPoint" />
            <Array as="points">
              <mxPoint x="1320" y="340" />
              <mxPoint x="1320" y="440" />
            </Array>
          </mxGeometry>
        </mxCell>
        <mxCell id="fv7HTJnl9uvVaTUGdY6p-47" value="" style="endArrow=none;dashed=1;html=1;dashPattern=1 3;strokeWidth=2;rounded=0;strokeColor=#457B9D;fontColor=#1D3557;fillColor=#A8DADC;entryX=0.571;entryY=1.05;entryDx=0;entryDy=0;entryPerimeter=0;" edge="1" parent="1" target="fv7HTJnl9uvVaTUGdY6p-46">
          <mxGeometry width="50" height="50" relative="1" as="geometry">
            <mxPoint x="400" y="1600" as="sourcePoint" />
            <mxPoint x="402" y="657" as="targetPoint" />
          </mxGeometry>
        </mxCell>
        <mxCell id="fv7HTJnl9uvVaTUGdY6p-46" value="" style="html=1;points=[[0,0,0,0,5],[0,1,0,0,-5],[1,0,0,0,5],[1,1,0,0,-5]];perimeter=orthogonalPerimeter;outlineConnect=0;targetShapes=umlLifeline;portConstraint=eastwest;newEdgeStyle={&quot;curved&quot;:0,&quot;rounded&quot;:0};strokeColor=#457B9D;fontColor=#1D3557;fillColor=#A8DADC;" vertex="1" parent="1">
          <mxGeometry x="396" y="719" width="10" height="39" as="geometry" />
        </mxCell>
        <mxCell id="fv7HTJnl9uvVaTUGdY6p-49" value="" style="endArrow=none;dashed=1;html=1;dashPattern=1 3;strokeWidth=2;rounded=0;strokeColor=#457B9D;fontColor=#1D3557;fillColor=#A8DADC;entryX=0.5;entryY=0.5;entryDx=0;entryDy=0;entryPerimeter=0;" edge="1" parent="1" target="fv7HTJnl9uvVaTUGdY6p-48">
          <mxGeometry width="50" height="50" relative="1" as="geometry">
            <mxPoint x="120" y="1600" as="sourcePoint" />
            <mxPoint x="120" y="460" as="targetPoint" />
          </mxGeometry>
        </mxCell>
        <mxCell id="fv7HTJnl9uvVaTUGdY6p-48" value="" style="html=1;points=[[0,0,0,0,5],[0,1,0,0,-5],[1,0,0,0,5],[1,1,0,0,-5]];perimeter=orthogonalPerimeter;outlineConnect=0;targetShapes=umlLifeline;portConstraint=eastwest;newEdgeStyle={&quot;curved&quot;:0,&quot;rounded&quot;:0};strokeColor=#457B9D;fontColor=#1D3557;fillColor=#A8DADC;" vertex="1" parent="1">
          <mxGeometry x="115" y="761" width="10" height="569" as="geometry" />
        </mxCell>
        <mxCell id="fv7HTJnl9uvVaTUGdY6p-50" value="" style="html=1;points=[[0,0,0,0,5],[0,1,0,0,-5],[1,0,0,0,5],[1,1,0,0,-5]];perimeter=orthogonalPerimeter;outlineConnect=0;targetShapes=umlLifeline;portConstraint=eastwest;newEdgeStyle={&quot;curved&quot;:0,&quot;rounded&quot;:0};strokeColor=#457B9D;fontColor=#1D3557;fillColor=#A8DADC;" vertex="1" parent="1">
          <mxGeometry x="396" y="839" width="10" height="471" as="geometry" />
        </mxCell>
        <mxCell id="fv7HTJnl9uvVaTUGdY6p-53" value="" style="endArrow=none;dashed=1;html=1;dashPattern=1 3;strokeWidth=2;rounded=0;strokeColor=#457B9D;fontColor=#1D3557;fillColor=#A8DADC;entryX=0.517;entryY=1.029;entryDx=0;entryDy=0;entryPerimeter=0;" edge="1" parent="1" source="fv7HTJnl9uvVaTUGdY6p-84" target="fv7HTJnl9uvVaTUGdY6p-52">
          <mxGeometry width="50" height="50" relative="1" as="geometry">
            <mxPoint x="680" y="1640" as="sourcePoint" />
            <mxPoint x="682" y="484" as="targetPoint" />
          </mxGeometry>
        </mxCell>
        <mxCell id="fv7HTJnl9uvVaTUGdY6p-52" value="" style="html=1;points=[[0,0,0,0,5],[0,1,0,0,-5],[1,0,0,0,5],[1,1,0,0,-5]];perimeter=orthogonalPerimeter;outlineConnect=0;targetShapes=umlLifeline;portConstraint=eastwest;newEdgeStyle={&quot;curved&quot;:0,&quot;rounded&quot;:0};strokeColor=#457B9D;fontColor=#1D3557;fillColor=#A8DADC;" vertex="1" parent="1">
          <mxGeometry x="677" y="862" width="10" height="80" as="geometry" />
        </mxCell>
        <mxCell id="fv7HTJnl9uvVaTUGdY6p-26" value="Encode Selected Supply &#39;email&#39;&lt;br&gt;using RSA" style="html=1;verticalAlign=bottom;endArrow=block;curved=0;rounded=0;" edge="1" parent="1">
          <mxGeometry width="80" relative="1" as="geometry">
            <mxPoint x="680" y="860" as="sourcePoint" />
            <mxPoint x="680" y="940" as="targetPoint" />
            <Array as="points">
              <mxPoint x="760" y="860" />
              <mxPoint x="760" y="940" />
            </Array>
          </mxGeometry>
        </mxCell>
        <mxCell id="fv7HTJnl9uvVaTUGdY6p-54" value="" style="html=1;points=[[0,0,0,0,5],[0,1,0,0,-5],[1,0,0,0,5],[1,1,0,0,-5]];perimeter=orthogonalPerimeter;outlineConnect=0;targetShapes=umlLifeline;portConstraint=eastwest;newEdgeStyle={&quot;curved&quot;:0,&quot;rounded&quot;:0};strokeColor=#457B9D;fontColor=#1D3557;fillColor=#A8DADC;" vertex="1" parent="1">
          <mxGeometry x="955" y="1354" width="10" height="58" as="geometry" />
        </mxCell>
        <mxCell id="fv7HTJnl9uvVaTUGdY6p-56" value="" style="endArrow=none;dashed=1;html=1;dashPattern=1 3;strokeWidth=2;rounded=0;strokeColor=#457B9D;fontColor=#1D3557;fillColor=#A8DADC;entryX=0.5;entryY=1;entryDx=0;entryDy=0;" edge="1" parent="1" target="fv7HTJnl9uvVaTUGdY6p-55">
          <mxGeometry width="50" height="50" relative="1" as="geometry">
            <mxPoint x="1240" y="1600" as="sourcePoint" />
            <mxPoint x="1240" y="881" as="targetPoint" />
          </mxGeometry>
        </mxCell>
        <mxCell id="fv7HTJnl9uvVaTUGdY6p-55" value="" style="html=1;points=[[0,0,0,0,5],[0,1,0,0,-5],[1,0,0,0,5],[1,1,0,0,-5]];perimeter=orthogonalPerimeter;outlineConnect=0;targetShapes=umlLifeline;portConstraint=eastwest;newEdgeStyle={&quot;curved&quot;:0,&quot;rounded&quot;:0};strokeColor=#457B9D;fontColor=#1D3557;fillColor=#A8DADC;" vertex="1" parent="1">
          <mxGeometry x="1233" y="1411.75" width="10" height="27.25" as="geometry" />
        </mxCell>
        <mxCell id="fv7HTJnl9uvVaTUGdY6p-59" value="Files DB" style="ellipse;shape=umlEntity;whiteSpace=wrap;html=1;strokeColor=#457B9D;fontColor=#1D3557;fillColor=#A8DADC;" vertex="1" parent="1">
          <mxGeometry x="1490" y="115" width="60" height="60" as="geometry" />
        </mxCell>
        <mxCell id="fv7HTJnl9uvVaTUGdY6p-60" value="" style="endArrow=none;dashed=1;html=1;dashPattern=1 3;strokeWidth=2;rounded=0;entryX=0.5;entryY=1;entryDx=0;entryDy=0;" edge="1" parent="1" target="fv7HTJnl9uvVaTUGdY6p-59">
          <mxGeometry width="50" height="50" relative="1" as="geometry">
            <mxPoint x="1520" y="1600" as="sourcePoint" />
            <mxPoint x="1560" y="300" as="targetPoint" />
          </mxGeometry>
        </mxCell>
        <mxCell id="fv7HTJnl9uvVaTUGdY6p-61" value="Complete Delete Trans-action" style="ellipse;shape=umlControl;whiteSpace=wrap;html=1;strokeColor=#457B9D;fontColor=#1D3557;fillColor=#A8DADC;" vertex="1" parent="1">
          <mxGeometry x="1760" y="90" width="80" height="90" as="geometry" />
        </mxCell>
        <mxCell id="fv7HTJnl9uvVaTUGdY6p-62" value="" style="endArrow=none;dashed=1;html=1;dashPattern=1 3;strokeWidth=2;rounded=0;entryX=0.475;entryY=1.033;entryDx=0;entryDy=0;entryPerimeter=0;" edge="1" parent="1" source="fv7HTJnl9uvVaTUGdY6p-87" target="fv7HTJnl9uvVaTUGdY6p-61">
          <mxGeometry width="50" height="50" relative="1" as="geometry">
            <mxPoint x="1798" y="1640" as="sourcePoint" />
            <mxPoint x="1799.5" y="190" as="targetPoint" />
          </mxGeometry>
        </mxCell>
        <mxCell id="fv7HTJnl9uvVaTUGdY6p-64" value="Get list Of All &#39;Orders&#39; Where Selected &#39;email&#39; used" style="html=1;verticalAlign=bottom;endArrow=block;curved=0;rounded=0;" edge="1" parent="1">
          <mxGeometry x="0.0012" width="80" relative="1" as="geometry">
            <mxPoint x="683" y="980" as="sourcePoint" />
            <mxPoint x="1520" y="980" as="targetPoint" />
            <mxPoint as="offset" />
          </mxGeometry>
        </mxCell>
        <mxCell id="fv7HTJnl9uvVaTUGdY6p-65" value="Form list of All &#39;Orders&#39; Where Selected &#39;email&#39; Used" style="html=1;verticalAlign=bottom;endArrow=block;curved=0;rounded=0;" edge="1" parent="1">
          <mxGeometry width="80" relative="1" as="geometry">
            <mxPoint x="1520" y="990" as="sourcePoint" />
            <mxPoint x="1520" y="1090" as="targetPoint" />
            <Array as="points">
              <mxPoint x="1600" y="990" />
              <mxPoint x="1600" y="1090" />
            </Array>
          </mxGeometry>
        </mxCell>
        <mxCell id="fv7HTJnl9uvVaTUGdY6p-66" value="Send list Of All &#39;Orders&#39; Where Selected &#39;email&#39; used" style="html=1;verticalAlign=bottom;endArrow=block;curved=0;rounded=0;" edge="1" parent="1">
          <mxGeometry x="0.0012" width="80" relative="1" as="geometry">
            <mxPoint x="1520" y="1104" as="sourcePoint" />
            <mxPoint x="680" y="1104" as="targetPoint" />
            <mxPoint as="offset" />
          </mxGeometry>
        </mxCell>
        <mxCell id="fv7HTJnl9uvVaTUGdY6p-73" value="Send Encoded Supply &#39;email&#39;" style="html=1;verticalAlign=bottom;endArrow=block;curved=0;rounded=0;" edge="1" parent="1">
          <mxGeometry x="0.0012" width="80" relative="1" as="geometry">
            <mxPoint x="680" y="1182" as="sourcePoint" />
            <mxPoint x="1800" y="1182" as="targetPoint" />
            <mxPoint as="offset" />
          </mxGeometry>
        </mxCell>
        <mxCell id="fv7HTJnl9uvVaTUGdY6p-74" value="Remove Supply with selected &#39;email&#39;" style="html=1;verticalAlign=bottom;endArrow=block;curved=0;rounded=0;" edge="1" parent="1">
          <mxGeometry width="80" relative="1" as="geometry">
            <mxPoint x="1800" y="1233" as="sourcePoint" />
            <mxPoint x="1240" y="1233" as="targetPoint" />
          </mxGeometry>
        </mxCell>
        <mxCell id="fv7HTJnl9uvVaTUGdY6p-75" value="Send &#39;Error&#39; message" style="html=1;verticalAlign=bottom;endArrow=block;curved=0;rounded=0;strokeColor=#457B9D;fontColor=#1D3557;fillColor=#A8DADC;" edge="1" parent="1">
          <mxGeometry width="80" relative="1" as="geometry">
            <mxPoint x="1801" y="1290" as="sourcePoint" />
            <mxPoint x="680.9" y="1289.75" as="targetPoint" />
          </mxGeometry>
        </mxCell>
        <mxCell id="fv7HTJnl9uvVaTUGdY6p-76" value="Send &#39;Error&#39; message" style="html=1;verticalAlign=bottom;endArrow=block;curved=0;rounded=0;strokeColor=#457B9D;fontColor=#1D3557;fillColor=#A8DADC;" edge="1" parent="1">
          <mxGeometry width="80" relative="1" as="geometry">
            <mxPoint x="680.9" y="1309.75" as="sourcePoint" />
            <mxPoint x="400.9" y="1309.75" as="targetPoint" />
          </mxGeometry>
        </mxCell>
        <mxCell id="fv7HTJnl9uvVaTUGdY6p-77" value="Show &#39;Supply With Entered email Already Exist&#39;" style="html=1;verticalAlign=bottom;endArrow=block;curved=0;rounded=0;strokeColor=#457B9D;fontColor=#1D3557;fillColor=#A8DADC;" edge="1" parent="1">
          <mxGeometry width="80" relative="1" as="geometry">
            <mxPoint x="405" y="1329.25" as="sourcePoint" />
            <mxPoint x="125" y="1329.25" as="targetPoint" />
          </mxGeometry>
        </mxCell>
        <mxCell id="fv7HTJnl9uvVaTUGdY6p-84" value="" style="html=1;points=[[0,0,0,0,5],[0,1,0,0,-5],[1,0,0,0,5],[1,1,0,0,-5]];perimeter=orthogonalPerimeter;outlineConnect=0;targetShapes=umlLifeline;portConstraint=eastwest;newEdgeStyle={&quot;curved&quot;:0,&quot;rounded&quot;:0};strokeColor=#457B9D;fontColor=#1D3557;fillColor=#A8DADC;" vertex="1" parent="1">
          <mxGeometry x="677" y="980" width="10" height="120" as="geometry" />
        </mxCell>
        <mxCell id="fv7HTJnl9uvVaTUGdY6p-86" value="" style="html=1;points=[[0,0,0,0,5],[0,1,0,0,-5],[1,0,0,0,5],[1,1,0,0,-5]];perimeter=orthogonalPerimeter;outlineConnect=0;targetShapes=umlLifeline;portConstraint=eastwest;newEdgeStyle={&quot;curved&quot;:0,&quot;rounded&quot;:0};strokeColor=#457B9D;fontColor=#1D3557;fillColor=#A8DADC;" vertex="1" parent="1">
          <mxGeometry x="1515" y="990" width="10" height="100" as="geometry" />
        </mxCell>
        <mxCell id="fv7HTJnl9uvVaTUGdY6p-88" value="" style="endArrow=none;dashed=1;html=1;dashPattern=1 3;strokeWidth=2;rounded=0;entryX=0.475;entryY=1.033;entryDx=0;entryDy=0;entryPerimeter=0;" edge="1" parent="1" target="fv7HTJnl9uvVaTUGdY6p-87">
          <mxGeometry width="50" height="50" relative="1" as="geometry">
            <mxPoint x="1800" y="1600" as="sourcePoint" />
            <mxPoint x="1798" y="183" as="targetPoint" />
          </mxGeometry>
        </mxCell>
        <mxCell id="fv7HTJnl9uvVaTUGdY6p-87" value="" style="html=1;points=[[0,0,0,0,5],[0,1,0,0,-5],[1,0,0,0,5],[1,1,0,0,-5]];perimeter=orthogonalPerimeter;outlineConnect=0;targetShapes=umlLifeline;portConstraint=eastwest;newEdgeStyle={&quot;curved&quot;:0,&quot;rounded&quot;:0};strokeColor=#457B9D;fontColor=#1D3557;fillColor=#A8DADC;" vertex="1" parent="1">
          <mxGeometry x="1795" y="1183" width="10" height="47" as="geometry" />
        </mxCell>
        <mxCell id="fv7HTJnl9uvVaTUGdY6p-89" value="" style="html=1;points=[[0,0,0,0,5],[0,1,0,0,-5],[1,0,0,0,5],[1,1,0,0,-5]];perimeter=orthogonalPerimeter;outlineConnect=0;targetShapes=umlLifeline;portConstraint=eastwest;newEdgeStyle={&quot;curved&quot;:0,&quot;rounded&quot;:0};strokeColor=#457B9D;fontColor=#1D3557;fillColor=#A8DADC;" vertex="1" parent="1">
          <mxGeometry x="1235" y="1233" width="10" height="27" as="geometry" />
        </mxCell>
        <mxCell id="fv7HTJnl9uvVaTUGdY6p-91" value="" style="html=1;points=[[0,0,0,0,5],[0,1,0,0,-5],[1,0,0,0,5],[1,1,0,0,-5]];perimeter=orthogonalPerimeter;outlineConnect=0;targetShapes=umlLifeline;portConstraint=eastwest;newEdgeStyle={&quot;curved&quot;:0,&quot;rounded&quot;:0};strokeColor=#457B9D;fontColor=#1D3557;fillColor=#A8DADC;" vertex="1" parent="1">
          <mxGeometry x="396" y="1345.38" width="10" height="134.62" as="geometry" />
        </mxCell>
        <mxCell id="fv7HTJnl9uvVaTUGdY6p-92" value="" style="html=1;points=[[0,0,0,0,5],[0,1,0,0,-5],[1,0,0,0,5],[1,1,0,0,-5]];perimeter=orthogonalPerimeter;outlineConnect=0;targetShapes=umlLifeline;portConstraint=eastwest;newEdgeStyle={&quot;curved&quot;:0,&quot;rounded&quot;:0};strokeColor=#457B9D;fontColor=#1D3557;fillColor=#A8DADC;" vertex="1" parent="1">
          <mxGeometry x="115" y="1345.38" width="10" height="154.62" as="geometry" />
        </mxCell>
        <mxCell id="fv7HTJnl9uvVaTUGdY6p-85" value="" style="endArrow=none;dashed=1;html=1;dashPattern=1 3;strokeWidth=2;rounded=0;strokeColor=#457B9D;fontColor=#1D3557;fillColor=#A8DADC;entryX=0.517;entryY=1.029;entryDx=0;entryDy=0;entryPerimeter=0;" edge="1" parent="1" target="fv7HTJnl9uvVaTUGdY6p-84">
          <mxGeometry width="50" height="50" relative="1" as="geometry">
            <mxPoint x="680" y="1600" as="sourcePoint" />
            <mxPoint x="682" y="944" as="targetPoint" />
          </mxGeometry>
        </mxCell>
        <mxCell id="fv7HTJnl9uvVaTUGdY6p-83" value="" style="html=1;points=[[0,0,0,0,5],[0,1,0,0,-5],[1,0,0,0,5],[1,1,0,0,-5]];perimeter=orthogonalPerimeter;outlineConnect=0;targetShapes=umlLifeline;portConstraint=eastwest;newEdgeStyle={&quot;curved&quot;:0,&quot;rounded&quot;:0};strokeColor=#457B9D;fontColor=#1D3557;fillColor=#A8DADC;" vertex="1" parent="1">
          <mxGeometry x="677" y="1183" width="10" height="106.25" as="geometry" />
        </mxCell>
        <mxCell id="fv7HTJnl9uvVaTUGdY6p-57" value="" style="html=1;points=[[0,0,0,0,5],[0,1,0,0,-5],[1,0,0,0,5],[1,1,0,0,-5]];perimeter=orthogonalPerimeter;outlineConnect=0;targetShapes=umlLifeline;portConstraint=eastwest;newEdgeStyle={&quot;curved&quot;:0,&quot;rounded&quot;:0};strokeColor=#457B9D;fontColor=#1D3557;fillColor=#A8DADC;" vertex="1" parent="1">
          <mxGeometry x="675" y="1354.75" width="10" height="106.25" as="geometry" />
        </mxCell>
        <mxCell id="fv7HTJnl9uvVaTUGdY6p-29" value="[Transaction done successfully]" style="text;html=1;strokeColor=none;fillColor=none;align=center;verticalAlign=middle;whiteSpace=wrap;rounded=0;fontColor=#1D3557;" vertex="1" parent="1">
          <mxGeometry x="125" y="1370" width="190" height="33" as="geometry" />
        </mxCell>
        <mxCell id="fv7HTJnl9uvVaTUGdY6p-33" value="" style="endArrow=none;dashed=1;html=1;rounded=0;strokeColor=#457B9D;fontColor=#1D3557;fillColor=#A8DADC;entryX=0.998;entryY=0.467;entryDx=0;entryDy=0;entryPerimeter=0;exitX=-0.002;exitY=0.55;exitDx=0;exitDy=0;exitPerimeter=0;" edge="1" parent="1" target="fv7HTJnl9uvVaTUGdY6p-34">
          <mxGeometry width="50" height="50" relative="1" as="geometry">
            <mxPoint x="63.56000000000008" y="1439.75" as="sourcePoint" />
            <mxPoint x="1240" y="1439.75" as="targetPoint" />
          </mxGeometry>
        </mxCell>
        <mxCell id="fv7HTJnl9uvVaTUGdY6p-34" value="Alt" style="shape=umlFrame;whiteSpace=wrap;html=1;pointerEvents=0;strokeColor=#457B9D;fontColor=#1D3557;fillColor=#A8DADC;" vertex="1" parent="1">
          <mxGeometry x="60" y="1370" width="1210" height="150" as="geometry" />
        </mxCell>
        <mxCell id="fv7HTJnl9uvVaTUGdY6p-35" value="[Transaction Fail]" style="text;html=1;strokeColor=none;fillColor=none;align=center;verticalAlign=middle;whiteSpace=wrap;rounded=0;fontColor=#1D3557;" vertex="1" parent="1">
          <mxGeometry x="30" y="1442" width="180" height="30" as="geometry" />
        </mxCell>
        <mxCell id="fv7HTJnl9uvVaTUGdY6p-69" value="Alt" style="shape=umlFrame;whiteSpace=wrap;html=1;pointerEvents=0;strokeColor=#457B9D;fontColor=#1D3557;fillColor=#A8DADC;" vertex="1" parent="1">
          <mxGeometry x="60" y="1150" width="1770" height="370" as="geometry" />
        </mxCell>
        <mxCell id="fv7HTJnl9uvVaTUGdY6p-70" value="" style="endArrow=none;dashed=1;html=1;rounded=0;strokeColor=#457B9D;fontColor=#1D3557;fillColor=#A8DADC;exitX=-0.001;exitY=0.409;exitDx=0;exitDy=0;exitPerimeter=0;entryX=1;entryY=0.405;entryDx=0;entryDy=0;entryPerimeter=0;" edge="1" parent="1">
          <mxGeometry width="50" height="50" relative="1" as="geometry">
            <mxPoint x="59.11000000000002" y="1345.88" as="sourcePoint" />
            <mxPoint x="1830.88" y="1345" as="targetPoint" />
          </mxGeometry>
        </mxCell>
        <mxCell id="fv7HTJnl9uvVaTUGdY6p-71" value="[List - Empty]" style="text;html=1;strokeColor=none;fillColor=none;align=center;verticalAlign=middle;whiteSpace=wrap;rounded=0;fontColor=#1D3557;fontStyle=1" vertex="1" parent="1">
          <mxGeometry x="80" y="1150" width="190" height="33" as="geometry" />
        </mxCell>
        <mxCell id="fv7HTJnl9uvVaTUGdY6p-72" value="[List - Not Empty]" style="text;html=1;strokeColor=none;fillColor=none;align=center;verticalAlign=middle;whiteSpace=wrap;rounded=0;fontColor=#1D3557;fontStyle=1" vertex="1" parent="1">
          <mxGeometry x="35" y="1340" width="190" height="33" as="geometry" />
        </mxCell>
        <mxCell id="fv7HTJnl9uvVaTUGdY6p-78" value="[Transaction done successfully]" style="text;html=1;strokeColor=none;fillColor=none;align=center;verticalAlign=middle;whiteSpace=wrap;rounded=0;fontColor=#1D3557;" vertex="1" parent="1">
          <mxGeometry x="120" y="1200" width="190" height="33" as="geometry" />
        </mxCell>
        <mxCell id="fv7HTJnl9uvVaTUGdY6p-79" value="" style="endArrow=none;dashed=1;html=1;rounded=0;strokeColor=#457B9D;fontColor=#1D3557;fillColor=#A8DADC;entryX=0.998;entryY=0.467;entryDx=0;entryDy=0;entryPerimeter=0;exitX=0.002;exitY=0.479;exitDx=0;exitDy=0;exitPerimeter=0;" edge="1" parent="1" target="fv7HTJnl9uvVaTUGdY6p-80" source="fv7HTJnl9uvVaTUGdY6p-80">
          <mxGeometry width="50" height="50" relative="1" as="geometry">
            <mxPoint x="53.56000000000009" y="1269.75" as="sourcePoint" />
            <mxPoint x="1230" y="1269.75" as="targetPoint" />
          </mxGeometry>
        </mxCell>
        <mxCell id="fv7HTJnl9uvVaTUGdY6p-80" value="Alt" style="shape=umlFrame;whiteSpace=wrap;html=1;pointerEvents=0;strokeColor=#457B9D;fontColor=#1D3557;fillColor=#A8DADC;" vertex="1" parent="1">
          <mxGeometry x="60" y="1200" width="1770" height="140" as="geometry" />
        </mxCell>
        <mxCell id="fv7HTJnl9uvVaTUGdY6p-81" value="[Transaction Fail]" style="text;html=1;strokeColor=none;fillColor=none;align=center;verticalAlign=middle;whiteSpace=wrap;rounded=0;fontColor=#1D3557;" vertex="1" parent="1">
          <mxGeometry x="30" y="1272" width="180" height="30" as="geometry" />
        </mxCell>
      </root>
    </mxGraphModel>
  </diagram>
</mxfile>
